<?xml version="1.0" encoding="UTF-8" standalone="no"?>
<svg
   xmlns:dc="http://purl.org/dc/elements/1.1/"
   xmlns:cc="http://creativecommons.org/ns#"
   xmlns:rdf="http://www.w3.org/1999/02/22-rdf-syntax-ns#"
   xmlns:svg="http://www.w3.org/2000/svg"
   xmlns="http://www.w3.org/2000/svg"
   xmlns:sodipodi="http://sodipodi.sourceforge.net/DTD/sodipodi-0.dtd"
   xmlns:inkscape="http://www.inkscape.org/namespaces/inkscape"
   width="210mm"
   height="297mm"
   viewBox="0 0 210 297"
   version="1.1"
   id="svg8"
   inkscape:version="1.0.1 (3bc2e813f5, 2020-09-07)"
   sodipodi:docname="PL-logo-Ramil.svg">
  <title
     id="title852">Premier League Logo - Ramil</title>
  <defs
     id="defs2" />
  <sodipodi:namedview
     id="base"
     pagecolor="#ffffff"
     bordercolor="#666666"
     borderopacity="1.0"
     inkscape:pageopacity="0.0"
     inkscape:pageshadow="2"
     inkscape:zoom="1.542407"
     inkscape:cx="394.42766"
     inkscape:cy="470.43578"
     inkscape:document-units="mm"
     inkscape:current-layer="layer1"
     inkscape:document-rotation="0"
     showgrid="false"
     inkscape:window-width="1487"
     inkscape:window-height="1334"
     inkscape:window-x="-16"
     inkscape:window-y="0"
     inkscape:window-maximized="0" />
  <metadata
     id="metadata5">
    <rdf:RDF>
      <cc:Work
         rdf:about="">
        <dc:format>image/svg+xml</dc:format>
        <dc:type
           rdf:resource="http://purl.org/dc/dcmitype/StillImage" />
        <dc:title>Premier League Logo - Ramil</dc:title>
      </cc:Work>
    </rdf:RDF>
  </metadata>
  <g
     inkscape:label="Layer 1"
     inkscape:groupmode="layer"
     id="layer1">
    <path
       id="path835"
       style="fill:#3d195b;stroke:#000000;stroke-width:0.747666px;stroke-linecap:butt;stroke-linejoin:miter;stroke-opacity:1;fill-opacity:1"
       d="M 348.80469 129.66797 L 329.35547 195.15039 L 265.81836 145.875 C 271.74895 165.46227 277.54689 185.03173 271.65234 202.92969 L 215.89648 178.94141 C 230.04679 199.64831 239.01712 216.86909 239.88477 239.23633 C 339.37052 196.39629 414.85122 210.52901 491.43945 224.32422 C 482.78418 184.76325 494.93422 167.36408 499.86719 150.41406 C 485.27995 159.03199 472.6897 180.68057 464.85742 197.74219 C 459.08559 175.3596 455.08168 153.56595 454.48438 132.9082 L 394.83789 188.66602 L 348.80469 129.66797 z M 393.78711 230.72461 C 393.29712 230.72261 392.8166 230.73165 392.3457 230.75195 C 324.23187 233.66205 288.61844 245.05186 259.86719 258.23047 C 274.8099 265.96988 291.28878 269.70291 294.56836 300.62891 C 294.56836 300.62891 276.7647 269.01403 250.04102 279.44141 C 223.31733 289.86878 230.72212 327.68275 237.29492 351.50195 C 217.90048 334.72805 208.27245 313.99382 214.81641 286.8418 C 167.38873 317.03465 147.6555 361.62757 143.36914 414.25391 L 171.10742 419.76758 C 132.56888 458.15231 126.16358 508.37596 119.67969 558.57031 C 135.30294 546.6685 150.43515 534.27471 171.06836 527.38281 C 161.06325 573.1993 157.9916 658.29376 196.08203 724.72266 C 225.65496 678.96781 245.85538 681.71294 258.74023 652.53125 C 281.48213 700.60537 290.64227 714.9626 282.88281 766.42578 C 361.35894 780.98445 431.45537 754.62077 491.3125 686.24023 L 513.01758 747.54102 C 570.92829 675.92955 584.52823 670.0214 615.46094 593.12695 L 632.59375 608.83398 C 638.32149 535.53491 650.5906 468.01459 579.13477 365.18359 L 573.11133 382.19922 L 554.28906 362.56055 L 565.97852 355.84375 C 568.61564 349.22603 565.71319 342.41914 559.75 337.52148 C 549.42388 335.60663 551.04862 341.56991 547.5332 349.87109 C 534.7443 335.00878 526.80401 344.31545 518.61914 341.73047 C 528.58507 346.409 537.58171 362.43155 538.90625 372.29492 L 567.5293 397.61719 C 550.38695 392.62523 520.61511 394.86642 500.07031 405.18555 L 465.35742 371.41406 C 459.35716 364.88011 460.77879 356.69666 470.33789 346.70508 C 461.26102 347.02832 452.35746 347.81119 448.35938 361.67773 L 418.35352 343.57031 C 400.41618 335.89896 384.21781 321.7637 354.66211 357.24609 C 353.29799 367.32426 372.06245 372.92943 385.14648 379.79688 C 406.50248 378.3348 443.12038 375.17432 452.69922 387.17188 L 485.60938 413.24023 C 474.52689 412.21885 463.44576 408.27288 452.36328 411.91211 C 434.69856 410.73894 424.76606 414.75328 402.38672 413.58008 C 330.82069 396.77826 331.90234 360.14453 331.90234 360.14453 L 305.9668 356.23438 C 314.72796 343.13255 327.60508 326.60686 350.18945 322.14453 L 333.60352 309.57227 C 365.53171 286.5352 356.3978 290.08004 419.60352 267.04297 C 447.57153 274.95853 481.38055 288.69753 504.19336 305.20508 C 510.48733 292.38659 508.46474 294.11203 506.30859 279.60352 C 505.48188 279.76886 532.61217 282.69905 565.95898 315.07422 C 561.14937 309.81848 551.61024 296.63063 554.32812 276.83984 C 531.85246 257.79262 509.37607 251.06817 486.90039 243.77539 C 491.80637 251.15487 495.79471 258.71786 492.18359 267.80078 C 492.56874 273.10697 424.65628 230.81919 393.78711 230.72461 z M 565.95898 315.07422 C 567.50646 316.76523 568.57227 317.65039 568.57227 317.65039 C 567.69597 316.76703 566.82724 315.91717 565.95898 315.07422 z M 577.66797 415.58398 C 595.81582 439.41232 586.66503 464.13147 584.80078 489.49414 C 573.2126 472.9287 570.23556 466.10225 556.92188 461.61523 L 556.92188 433.08984 C 571.44815 424.71793 572.82235 420.72902 577.66797 415.58398 z M 505.05469 422.7168 C 513.64797 426.11962 521.75165 434.65473 535.52734 436.33008 L 534.87891 457.07812 C 515.80805 474.90907 502.98353 495.44266 471.99023 497.27539 L 440.86914 453.83594 C 464.42376 428.66946 484.82114 426.29631 505.05469 422.7168 z M 538.11914 488.8457 L 560.8125 489.49414 C 578.65077 499.67483 577.4617 507.34687 578.31641 514.13086 C 575.29717 530.77151 574.20522 546.76364 557.57031 563.4043 L 546.54883 527.74609 C 539.71756 539.29387 523.97426 542.12437 499.86719 543.30664 L 482.36328 516.07617 C 518.68605 509.95564 520.2718 498.04549 538.11914 488.8457 z "
       transform="scale(0.26458333)" />
  </g>
</svg>
